<svg width="95" height="25" viewBox="0 0 95 25" fill="none" xmlns="http://www.w3.org/2000/svg">
<path d="M7.456 24.384C2.976 24.384 0.736 22.272 0.736 20.352C0.736 19.36 1.504 18.56 2.464 18.56C5.152 18.56 5.216 21.888 7.392 21.888C8.384 21.888 8.96 21.408 8.96 20.512C8.96 19.392 8.032 18.624 5.696 17.568C2.976 16.352 1.216 15.104 1.216 12.416C1.216 9.184 4.192 7.456 7.776 7.456C11.968 7.456 14.336 9.216 14.336 11.2C14.336 12.16 13.6 12.992 12.672 12.992C9.984 12.992 10.144 9.984 7.776 9.984C6.912 9.984 6.4 10.496 6.4 11.168C6.4 12.128 6.688 12.672 9.824 14.144C12.448 15.392 14.304 16.704 14.304 19.392C14.304 22.304 11.68 24.384 7.456 24.384ZM17.9693 23.936C16.9133 23.936 16.0493 23.808 16.0493 22.816C16.0493 21.728 17.4573 21.664 17.4573 20.384V5.472C17.4573 4.384 17.1053 3.936 16.6893 3.648C16.0813 3.2 15.5693 3.008 15.5693 2.272C15.5693 1.184 19.4093 0.0320034 21.0733 0.0320034C22.1933 0.0320034 22.5453 0.544004 22.5453 1.696V10.4H22.7053C23.6973 8.704 25.3613 7.456 27.7933 7.456C31.9213 7.456 33.2333 10.336 33.2333 14.784V20.384C33.2333 21.664 34.6413 21.728 34.6413 22.848C34.6413 23.808 33.7453 23.936 32.6893 23.936H28.0493C26.9933 23.936 26.0973 23.808 26.0973 22.848C26.0973 21.728 27.5053 21.664 27.5053 20.384V15.488C27.5053 13.056 26.9293 11.744 25.3933 11.744C23.8253 11.744 23.1533 13.216 23.1533 15.2V20.384C23.1533 21.664 24.5613 21.728 24.5613 22.816C24.5613 23.808 23.6973 23.936 22.6093 23.936H17.9693Z" fill="url(#paint0_linear_52_7)"/>
<path d="M42.552 24.256C38.36 24.256 37.048 21.44 37.048 17.216V11.648C37.048 11.104 36.792 10.816 36.536 10.624C35.928 10.24 35.48 10.08 35.48 9.408C35.48 8.992 35.768 8.672 36.376 8.448C38.584 7.68 40.248 7.456 40.952 7.456C42.392 7.456 42.744 8.096 42.744 9.6V16.576C42.744 18.656 43.192 20 44.792 20C46.488 20 47.096 18.528 47.096 16.576L47.128 11.648C47.128 11.104 46.872 10.816 46.616 10.624C46.008 10.24 45.56 10.08 45.56 9.408C45.56 8.992 45.848 8.704 46.456 8.448C48.12 7.712 50.2 7.456 51 7.456C52.44 7.456 52.792 8.128 52.824 9.632L52.792 18.88C52.792 19.968 53.176 20.384 53.56 20.672C54.2 21.12 54.68 21.312 54.68 22.048C54.68 23.136 50.968 24.288 49.176 24.288C48.056 24.288 47.736 23.776 47.704 22.624V21.312H47.544C46.456 23.264 44.664 24.256 42.552 24.256Z" fill="url(#paint1_linear_52_7)"/>
<path d="M67 24.384C64.632 24.384 63.16 23.552 62.104 22.432H61.944V22.752C61.944 23.808 61.592 23.936 60.536 23.936H57.88C56.728 23.936 55.768 23.872 55.768 22.816C55.768 21.6 57.176 21.568 57.176 20.288L57.144 5.504C57.144 4.288 56.728 3.776 56.216 3.424C55.672 3.04 55.256 2.848 55.256 2.208C55.256 1.056 59.032 3.8147e-06 60.792 3.8147e-06C62.168 3.8147e-06 62.808 0.736004 62.808 1.728V9.312C64.056 8.032 65.592 7.456 67.256 7.456C70.904 7.456 74.232 10.336 74.232 15.712C74.232 20.704 71.512 24.384 67 24.384ZM66.328 21.696C67.64 21.696 68.6 20.672 68.6 18.208C68.632 15.168 67.32 10.848 65.048 10.848C63.672 10.816 62.84 12.128 62.84 14.08V15.392C62.84 18.912 64.44 21.696 66.328 21.696ZM77.7818 23.936C76.7258 23.936 75.8618 23.808 75.8618 22.816C75.8618 21.728 77.2698 21.664 77.2698 20.384V5.472C77.2698 4.384 76.9178 3.936 76.5018 3.648C75.8938 3.2 75.3818 3.008 75.3818 2.272C75.3818 1.184 79.2218 0.0320034 80.8858 0.0320034C82.0058 0.0320034 82.3578 0.544004 82.3578 1.696V10.4H82.5178C83.5098 8.704 85.1738 7.456 87.6058 7.456C91.7338 7.456 93.0458 10.336 93.0458 14.784V20.384C93.0458 21.664 94.4538 21.728 94.4538 22.848C94.4538 23.808 93.5578 23.936 92.5018 23.936H87.8618C86.8058 23.936 85.9098 23.808 85.9098 22.848C85.9098 21.728 87.3178 21.664 87.3178 20.384V15.488C87.3178 13.056 86.7418 11.744 85.2058 11.744C83.6378 11.744 82.9658 13.216 82.9658 15.2V20.384C82.9658 21.664 84.3738 21.728 84.3738 22.816C84.3738 23.808 83.5098 23.936 82.4218 23.936H77.7818Z" fill="url(#paint2_linear_52_7)"/>
<defs>
<linearGradient id="paint0_linear_52_7" x1="0.999998" y1="0.436007" x2="36" y2="24.936" gradientUnits="userSpaceOnUse">
<stop stop-color="#FF5C8D"/>
<stop offset="1" stop-color="#F17D89"/>
</linearGradient>
<linearGradient id="paint1_linear_52_7" x1="53" y1="7.936" x2="36.5" y2="22.936" gradientUnits="userSpaceOnUse">
<stop stop-color="#B47CD5"/>
<stop offset="0.55248" stop-color="#EE7C90"/>
</linearGradient>
<linearGradient id="paint2_linear_52_7" x1="68" y1="-0.0639953" x2="71.5" y2="23.936" gradientUnits="userSpaceOnUse">
<stop offset="0.211538" stop-color="#B47CD5"/>
<stop offset="0.721154" stop-color="#F2CB82"/>
<stop offset="0.8125" stop-color="#F2CB82"/>
<stop offset="1" stop-color="#F88D7B"/>
</linearGradient>
</defs>
</svg>
